<svg width="53" height="29" viewBox="0 0 53 29" fill="none" xmlns="http://www.w3.org/2000/svg">
<path d="M0.957031 0.519531L24.6484 0.480469L24.4336 14.4062H23.7109C23.737 12.7656 23.6393 11.3203 23.418 10.0703C23.2096 8.80729 22.9232 7.71354 22.5586 6.78906C22.207 5.86458 21.7969 5.08984 21.3281 4.46484C20.8594 3.82682 20.3776 3.29948 19.8828 2.88281C19.388 2.46615 18.8997 2.14714 18.418 1.92578C17.9492 1.70443 17.526 1.54167 17.1484 1.4375C16.7839 1.33333 16.4844 1.26823 16.25 1.24219C16.0286 1.21615 15.918 1.20312 15.918 1.20312C15.5404 1.20312 15.1497 1.20964 14.7461 1.22266C14.3555 1.23568 13.9714 1.24219 13.5938 1.24219C13.5807 1.39844 13.5612 1.73047 13.5352 2.23828C13.5221 2.74609 13.4961 3.50781 13.457 4.52344C13.418 5.52604 13.3724 6.82812 13.3203 8.42969C13.2682 10.0182 13.2161 11.9714 13.1641 14.2891C13.2812 14.276 13.5026 14.2565 13.8281 14.2305C14.1667 14.2044 14.5443 14.1328 14.9609 14.0156C15.3906 13.8854 15.8333 13.6901 16.2891 13.4297C16.7448 13.1562 17.1615 12.7786 17.5391 12.2969C17.9167 11.8021 18.2227 11.1771 18.457 10.4219C18.7044 9.66667 18.8216 8.74219 18.8086 7.64844H19.5117H18.8086H19.5117L19.3164 22.5508H18.5938C18.5547 21.2747 18.3919 20.1094 18.1055 19.0547C17.9883 18.612 17.832 18.1693 17.6367 17.7266C17.4414 17.2839 17.207 16.8802 16.9336 16.5156C16.6602 16.138 16.3346 15.819 15.957 15.5586C15.5794 15.2982 15.1432 15.1224 14.6484 15.0312L13.1641 14.9922L12.9297 27.3164H18.0078C18.2943 27.2904 18.6849 27.2188 19.1797 27.1016C19.6745 26.9844 20.2018 26.7891 20.7617 26.5156C21.3346 26.2422 21.9141 25.8711 22.5 25.4023C23.0859 24.9336 23.6198 24.3281 24.1016 23.5859C24.5964 22.8307 25 21.9258 25.3125 20.8711C25.638 19.8034 25.8268 18.5404 25.8789 17.082H26.6016L26.2891 28.0391H0.996094V27.3164H5.60547L5.72266 1.24219H0.957031V0.519531ZM28.75 10.832L38.5547 10.5977L38.4375 15.9297C38.6719 15.3438 38.9388 14.7839 39.2383 14.25C39.5508 13.7031 39.9023 13.2148 40.293 12.7852C40.6836 12.3555 41.1198 12.0039 41.6016 11.7305C42.0833 11.444 42.6172 11.2682 43.2031 11.2031C43.9453 11.2031 44.6419 11.3398 45.293 11.6133C45.944 11.8737 46.5365 12.2383 47.0703 12.707C47.6172 13.1628 48.099 13.7031 48.5156 14.3281C48.9323 14.9531 49.2839 15.6172 49.5703 16.3203C49.8568 17.0234 50.0651 17.7461 50.1953 18.4883C50.3255 19.2174 50.3776 19.9336 50.3516 20.6367C50.3385 21.3659 50.319 22.1146 50.293 22.8828C50.2669 23.5469 50.2344 24.2826 50.1953 25.0898C50.1693 25.8841 50.1302 26.6654 50.0781 27.4336L52.832 27.4727V28.1953L41.9922 27.9609V27.2383L44.1211 27.2773C44.4336 23.8008 44.5117 20.2786 44.3555 16.7109C44.3945 15.0833 44.3034 13.8984 44.082 13.1562C43.8737 12.4141 43.431 12.0299 42.7539 12.0039C42.5326 12.069 42.2396 12.1927 41.875 12.375C41.5104 12.5573 41.1198 12.8763 40.7031 13.332C40.2995 13.7747 39.8893 14.3867 39.4727 15.168C39.069 15.9362 38.7109 16.9323 38.3984 18.1562L38.2031 27.2383H40.2344V27.9609H30.0781V27.2383H31.8359L32.2266 11.4766L28.75 11.5547V10.832Z" fill="black"/>
</svg>
