<svg width="36" height="29" viewBox="0 0 36 29" fill="none" xmlns="http://www.w3.org/2000/svg">
<path d="M17.1289 1.51562L13.6719 1.39844C13.6458 1.59375 13.6198 1.96484 13.5938 2.51172C13.5677 3.04557 13.5352 3.83984 13.4961 4.89453C13.457 5.94922 13.418 7.29688 13.3789 8.9375C13.3398 10.5651 13.2943 12.5703 13.2422 14.9531L23.8086 14.7969L23.8867 1.16406L19.6484 1.00781V0.285156L35.957 0.792969V1.51562L31.7578 1.39844C31.7448 1.55469 31.7253 1.84115 31.6992 2.25781C31.6732 2.67448 31.6406 3.29297 31.6016 4.11328C31.5755 4.92057 31.543 5.96224 31.5039 7.23828C31.4648 8.51432 31.4193 10.0898 31.3672 11.9648C31.3281 13.8398 31.2826 16.0469 31.2305 18.5859C31.1784 21.125 31.1263 24.0612 31.0742 27.3945H35.8789V28.1172H19.9609V27.3945H23.7695L23.8086 15.5195L13.2031 15.6758C13.1771 16.4961 13.1576 17.3424 13.1445 18.2148C13.1315 19.0872 13.1185 20.0052 13.1055 20.9688C13.0924 21.9193 13.0729 22.9284 13.0469 23.9961C13.0339 25.0508 13.0208 26.1836 13.0078 27.3945H17.0312V28.1172H1.07422V27.3945H5.68359L5.80078 1.16406L0.800781 1.00781V0.285156L17.1289 0.792969V1.51562Z" fill="black"/>
</svg>
