<svg width="52" height="52" viewBox="0 0 52 52" fill="none" xmlns="http://www.w3.org/2000/svg">
<circle cx="26" cy="26" r="24" fill="#FFFCF2"/>
<circle cx="26" cy="26" r="24" stroke="#FAF2FF" stroke-width="4"/>
<path d="M26 2C29.1517 2 32.2726 2.62078 35.1844 3.82689C38.0962 5.033 40.742 6.80083 42.9706 9.02944C45.1992 11.258 46.967 13.9038 48.1731 16.8156C49.3792 19.7274 50 22.8483 50 26C50 29.1517 49.3792 32.2726 48.1731 35.1844C46.967 38.0962 45.1992 40.742 42.9706 42.9706C40.742 45.1992 38.0962 46.967 35.1844 48.1731C32.2726 49.3792 29.1517 50 26 50C22.8483 50 19.7274 49.3792 16.8156 48.1731C13.9038 46.967 11.258 45.1992 9.02943 42.9706C6.80082 40.7419 5.033 38.0962 3.82689 35.1844C2.62078 32.2726 2 29.1517 2 26C2 22.8483 2.62078 19.7274 3.8269 16.8156C5.03301 13.9038 6.80084 11.258 9.02945 9.02943C11.2581 6.80082 13.9038 5.033 16.8156 3.82689C19.7274 2.62077 22.8483 2 26 2L26 2Z" stroke="url(#paint0_linear_339_338)" stroke-width="4" stroke-linecap="round"/>
<path fill-rule="evenodd" clip-rule="evenodd" d="M13.7071 34.9203C13.3166 35.3108 13.3166 35.944 13.7071 36.3345L14.4142 37.0416C14.8047 37.4322 15.4379 37.4322 15.8284 37.0416L19.2426 33.6274H33C33.5523 33.6274 34 33.1797 34 32.6274V18.8701L37.0416 15.8284C37.4322 15.4379 37.4322 14.8047 37.0416 14.4142L36.3345 13.7071C35.944 13.3166 35.3108 13.3166 34.9203 13.7071L13.7071 34.9203ZM22.2426 30.6274H30C30.5523 30.6274 31 30.1797 31 29.6274V21.8701L22.2426 30.6274Z" fill="url(#paint1_linear_339_338)"/>
<defs>
<linearGradient id="paint0_linear_339_338" x1="26" y1="2" x2="26" y2="50" gradientUnits="userSpaceOnUse">
<stop stop-color="#AD33FF"/>
<stop offset="1" stop-color="#8419FF"/>
</linearGradient>
<linearGradient id="paint1_linear_339_338" x1="25.3744" y1="13" x2="25.3744" y2="37.7487" gradientUnits="userSpaceOnUse">
<stop stop-color="#AD33FF"/>
<stop offset="1" stop-color="#8B33FF"/>
</linearGradient>
</defs>
</svg>
