<svg width="52" height="52" viewBox="0 0 52 52" fill="none" xmlns="http://www.w3.org/2000/svg">
<circle cx="26" cy="26" r="24" fill="#F5F9FF"/>
<path d="M26 2C29.1517 2 32.2726 2.62078 35.1844 3.82689C38.0962 5.033 40.742 6.80083 42.9706 9.02944C45.1992 11.258 46.967 13.9038 48.1731 16.8156C49.3792 19.7274 50 22.8483 50 26C50 29.1517 49.3792 32.2726 48.1731 35.1844C46.967 38.0962 45.1992 40.742 42.9706 42.9706C40.742 45.1992 38.0962 46.967 35.1844 48.1731C32.2726 49.3792 29.1517 50 26 50C22.8483 50 19.7274 49.3792 16.8156 48.1731C13.9038 46.967 11.258 45.1992 9.02943 42.9706C6.80082 40.7419 5.033 38.0962 3.82689 35.1844C2.62078 32.2726 2 29.1517 2 26C2 22.8483 2.62078 19.7274 3.8269 16.8156C5.03301 13.9038 6.80084 11.258 9.02945 9.02943C11.2581 6.80082 13.9038 5.033 16.8156 3.82689C19.7274 2.62077 22.8483 2 26 2L26 2Z" stroke="#3365FF" stroke-width="4" stroke-linecap="round"/>
<path d="M24 18.25V15.75C24 15.3358 24.3358 15 24.75 15H27.25C27.6642 15 28 15.3358 28 15.75V18.25C28 18.6642 27.6642 19 27.25 19H24.75C24.3358 19 24 18.6642 24 18.25Z" fill="url(#paint0_linear_339_329)"/>
<path d="M21.5 22.25C21.5 21.8358 21.8358 21.5 22.25 21.5H27.25C27.6642 21.5 28 21.8358 28 22.25V33.75C28 33.8881 28.1119 34 28.25 34H29.75C30.1642 34 30.5 34.3358 30.5 34.75V36.25C30.5 36.6642 30.1642 37 29.75 37H22.25C21.8358 37 21.5 36.6642 21.5 36.25V34.75C21.5 34.3358 21.8358 34 22.25 34H23.75C23.8881 34 24 33.8881 24 33.75V25.25C24 25.1119 23.8881 25 23.75 25H22.25C21.8358 25 21.5 24.6642 21.5 24.25V22.25Z" fill="url(#paint1_linear_339_329)"/>
<defs>
<linearGradient id="paint0_linear_339_329" x1="26" y1="15" x2="26" y2="37" gradientUnits="userSpaceOnUse">
<stop stop-color="#3472FF"/>
<stop offset="1" stop-color="#334EFF"/>
</linearGradient>
<linearGradient id="paint1_linear_339_329" x1="26" y1="15" x2="26" y2="37" gradientUnits="userSpaceOnUse">
<stop stop-color="#3472FF"/>
<stop offset="1" stop-color="#334EFF"/>
</linearGradient>
</defs>
</svg>
