<svg width="52" height="52" viewBox="0 0 52 52" fill="none" xmlns="http://www.w3.org/2000/svg">
<circle cx="26" cy="26" r="24" fill="#F5FFF5"/>
<path d="M18.4285 33.7143H33.5713C34.1236 33.7143 34.5713 34.162 34.5713 34.7143V36.1429C34.5713 36.6952 34.1236 37.1429 33.5713 37.1429H18.4285C17.8762 37.1429 17.4285 36.6952 17.4285 36.1429V34.7143C17.4285 34.162 17.8762 33.7143 18.4285 33.7143Z" fill="url(#paint0_linear_339_321)"/>
<path d="M29.6231 22.807C29.8448 22.7282 29.8448 22.4147 29.6231 22.3359L18.0935 18.2365C17.6948 18.0947 17.4285 17.7174 17.4285 17.2942V15.4543C17.4285 14.753 18.1316 14.2695 18.7864 14.5206L32.7038 19.8556C33.8287 20.2868 34.5713 21.3668 34.5713 22.5714C34.5713 23.7761 33.8287 24.8561 32.7038 25.2873L18.7864 30.6223C18.1316 30.8733 17.4285 30.3899 17.4285 29.6886V27.8486C17.4285 27.4255 17.6948 27.0482 18.0935 26.9064L29.6231 22.807Z" fill="url(#paint1_linear_339_321)"/>
<path d="M26 2C29.1517 2 32.2726 2.62078 35.1844 3.82689C38.0962 5.033 40.742 6.80083 42.9706 9.02944C45.1992 11.258 46.967 13.9038 48.1731 16.8156C49.3792 19.7274 50 22.8483 50 26C50 29.1517 49.3792 32.2726 48.1731 35.1844C46.967 38.0962 45.1992 40.742 42.9706 42.9706C40.742 45.1992 38.0962 46.967 35.1844 48.1731C32.2726 49.3792 29.1517 50 26 50C22.8483 50 19.7274 49.3792 16.8156 48.1731C13.9038 46.967 11.258 45.1992 9.02943 42.9706C6.80082 40.7419 5.033 38.0962 3.82689 35.1844C2.62078 32.2726 2 29.1517 2 26C2 22.8483 2.62078 19.7274 3.8269 16.8156C5.03301 13.9038 6.80084 11.258 9.02945 9.02943C11.2581 6.80082 13.9038 5.033 16.8156 3.82689C19.7274 2.62077 22.8483 2 26 2L26 2Z" stroke="#2EE53F" stroke-width="4" stroke-linecap="round"/>
<defs>
<linearGradient id="paint0_linear_339_321" x1="25.9999" y1="14.4534" x2="25.9999" y2="37.1429" gradientUnits="userSpaceOnUse">
<stop stop-color="#2EE62E"/>
<stop offset="1" stop-color="#2EE66B"/>
</linearGradient>
<linearGradient id="paint1_linear_339_321" x1="25.9999" y1="14.4534" x2="25.9999" y2="37.1429" gradientUnits="userSpaceOnUse">
<stop stop-color="#2EE62E"/>
<stop offset="1" stop-color="#2EE66B"/>
</linearGradient>
</defs>
</svg>
