<svg width="52" height="52" viewBox="0 0 52 52" fill="none" xmlns="http://www.w3.org/2000/svg">
<circle cx="26" cy="26" r="24" fill="#FFFCF2"/>
<circle cx="26" cy="26" r="24" stroke="#FFF5F2" stroke-width="4"/>
<path fill-rule="evenodd" clip-rule="evenodd" d="M35 26C35 32.6274 30.9706 38 26 38C21.0294 38 17 32.6274 17 26C17 19.3726 21.0294 14 26 14C30.9706 14 35 19.3726 35 26ZM31.7093 26.5C31.6146 28.9999 30.8159 31.1397 29.7103 32.6138C28.5293 34.1885 27.1768 34.8182 26 34.8182C24.8232 34.8182 23.4707 34.1885 22.2897 32.6138C21.1841 31.1397 20.3854 28.9999 20.2907 26.5H31.7093ZM31.4367 23.3182C31.0979 21.7547 30.4781 20.4099 29.7103 19.3862C28.5293 17.8115 27.1768 17.1818 26 17.1818C24.8232 17.1818 23.4707 17.8115 22.2897 19.3862C21.5219 20.4099 20.9021 21.7547 20.5633 23.3182H31.4367Z" fill="url(#paint0_linear_339_343)"/>
<path d="M26 2C29.1517 2 32.2726 2.62078 35.1844 3.82689C38.0962 5.033 40.742 6.80083 42.9706 9.02944C45.1992 11.258 46.967 13.9038 48.1731 16.8156C49.3792 19.7274 50 22.8483 50 26C50 29.1517 49.3792 32.2726 48.1731 35.1844C46.967 38.0962 45.1992 40.742 42.9706 42.9706C40.742 45.1992 38.0962 46.967 35.1844 48.1731C32.2726 49.3792 29.1517 50 26 50C22.8483 50 19.7274 49.3792 16.8156 48.1731C13.9038 46.967 11.258 45.1992 9.02943 42.9706C6.80082 40.7419 5.033 38.0962 3.82689 35.1844C2.62078 32.2726 2 29.1517 2 26C2 22.8483 2.62078 19.7274 3.8269 16.8156C5.03301 13.9038 6.80084 11.258 9.02945 9.02943C11.2581 6.80082 13.9038 5.033 16.8156 3.82689C19.7274 2.62077 22.8483 2 26 2L26 2Z" stroke="url(#paint1_linear_339_343)" stroke-width="4" stroke-linecap="round"/>
<defs>
<linearGradient id="paint0_linear_339_343" x1="26" y1="14" x2="26" y2="38" gradientUnits="userSpaceOnUse">
<stop stop-color="#FF5833"/>
<stop offset="1" stop-color="#FF7A33"/>
</linearGradient>
<linearGradient id="paint1_linear_339_343" x1="26" y1="2" x2="26" y2="50" gradientUnits="userSpaceOnUse">
<stop stop-color="#FF451C"/>
<stop offset="1" stop-color="#FFB84D"/>
</linearGradient>
</defs>
</svg>
