<svg width="52" height="52" viewBox="0 0 52 52" fill="none" xmlns="http://www.w3.org/2000/svg">
<circle cx="26" cy="26" r="24" fill="#FFF7F5"/>
<path d="M31.9239 22.9999C31.8306 22.9999 31.7466 22.9673 31.6719 22.9019C31.6066 22.8273 31.5739 22.7433 31.5739 22.6499V21.5999C31.5739 21.3199 31.6906 21.0866 31.9239 20.8999L33.2259 19.6259C34.1126 18.9539 34.7799 18.4313 35.2279 18.0579C35.6852 17.6846 36.0306 17.3486 36.2639 17.0499C36.5066 16.7419 36.6279 16.4526 36.6279 16.1819C36.6279 15.4913 36.2826 15.1459 35.5919 15.1459C35.2279 15.1459 34.9479 15.2579 34.7519 15.4819C34.5559 15.6966 34.4252 15.9673 34.3599 16.2939C34.3039 16.5086 34.1452 16.6159 33.8839 16.6159H32.0359C31.9519 16.6159 31.8772 16.5879 31.8119 16.5319C31.7559 16.4666 31.7279 16.3966 31.7279 16.3219C31.7466 15.7059 31.9146 15.1506 32.2319 14.6559C32.5586 14.1519 33.0112 13.7553 33.5899 13.4659C34.1686 13.1673 34.8359 13.0179 35.5919 13.0179C36.3759 13.0179 37.0526 13.1439 37.6219 13.3959C38.1912 13.6479 38.6206 14.0026 38.9099 14.4599C39.2086 14.9173 39.3579 15.4493 39.3579 16.0559C39.3579 16.7279 39.1479 17.3346 38.7279 17.8759C38.3172 18.4173 37.6872 19.0053 36.8379 19.6399L35.6759 20.8019H39.2179C39.3206 20.8019 39.4046 20.8346 39.4699 20.8999C39.5352 20.9653 39.5679 21.0493 39.5679 21.1519V22.6499C39.5679 22.7433 39.5352 22.8273 39.4699 22.9019C39.4046 22.9673 39.3206 22.9999 39.2179 22.9999H31.9239Z" fill="url(#paint0_linear_339_325)"/>
<path d="M15.3199 35.8571C15.1399 35.8571 14.9799 35.7971 14.8399 35.6771C14.7199 35.5371 14.6599 35.3771 14.6599 35.1971C14.6599 35.0171 14.7199 34.8471 14.8399 34.6871L19.9699 27.8471L15.2299 21.4271C15.1099 21.2671 15.0499 21.0971 15.0499 20.9171C15.0499 20.7371 15.1099 20.5871 15.2299 20.4671C15.3699 20.3271 15.5299 20.2571 15.7099 20.2571H18.3499C18.5699 20.2571 18.7299 20.3071 18.8299 20.4071C18.9499 20.4871 19.0699 20.6071 19.1899 20.7671L22.5499 25.2371L25.8799 20.7671C25.8999 20.7471 25.9699 20.6571 26.0899 20.4971C26.2299 20.3371 26.4399 20.2571 26.7199 20.2571H29.2699C29.4499 20.2571 29.5999 20.3271 29.7199 20.4671C29.8399 20.5871 29.8999 20.7271 29.8999 20.8871C29.8999 21.0871 29.8399 21.2671 29.7199 21.4271L24.9199 27.8771L30.0799 34.6871C30.1999 34.8471 30.2599 35.0171 30.2599 35.1971C30.2599 35.3771 30.1899 35.5371 30.0499 35.6771C29.9299 35.7971 29.7799 35.8571 29.5999 35.8571H26.8399C26.5199 35.8571 26.2499 35.6971 26.0299 35.3771L22.4299 30.6371L18.7999 35.3771C18.5799 35.6971 18.3099 35.8571 17.9899 35.8571H15.3199Z" fill="url(#paint1_linear_339_325)"/>
<path d="M26 2C29.1517 2 32.2726 2.62078 35.1844 3.82689C38.0962 5.033 40.742 6.80083 42.9706 9.02944C45.1992 11.258 46.967 13.9038 48.1731 16.8156C49.3792 19.7274 50 22.8483 50 26C50 29.1517 49.3792 32.2726 48.1731 35.1844C46.967 38.0962 45.1992 40.742 42.9706 42.9706C40.742 45.1992 38.0962 46.967 35.1844 48.1731C32.2726 49.3792 29.1517 50 26 50C22.8483 50 19.7274 49.3792 16.8156 48.1731C13.9038 46.967 11.258 45.1992 9.02943 42.9706C6.80082 40.7419 5.033 38.0962 3.82689 35.1844C2.62078 32.2726 2 29.1517 2 26C2 22.8483 2.62078 19.7274 3.8269 16.8156C5.03301 13.9038 6.80084 11.258 9.02945 9.02943C11.2581 6.80082 13.9038 5.033 16.8156 3.82689C19.7274 2.62077 22.8483 2 26 2L26 2Z" stroke="#FF6E33" stroke-width="4" stroke-linecap="round"/>
<defs>
<linearGradient id="paint0_linear_339_325" x1="27.1139" y1="13.0179" x2="27.1139" y2="35.8571" gradientUnits="userSpaceOnUse">
<stop stop-color="#FF5833"/>
<stop offset="1" stop-color="#FF7A33"/>
</linearGradient>
<linearGradient id="paint1_linear_339_325" x1="27.1139" y1="13.0179" x2="27.1139" y2="35.8571" gradientUnits="userSpaceOnUse">
<stop stop-color="#FF5833"/>
<stop offset="1" stop-color="#FF7A33"/>
</linearGradient>
</defs>
</svg>
