<svg width="52" height="52" viewBox="0 0 52 52" fill="none" xmlns="http://www.w3.org/2000/svg">
<circle cx="26" cy="26" r="24" fill="#FFFCF2"/>
<circle cx="26" cy="26" r="24" stroke="#F2FDFF" stroke-width="4"/>
<path d="M26 2C29.1517 2 32.2726 2.62078 35.1844 3.82689C38.0962 5.033 40.742 6.80083 42.9706 9.02944C45.1992 11.258 46.967 13.9038 48.1731 16.8156C49.3792 19.7274 50 22.8483 50 26C50 29.1517 49.3792 32.2726 48.1731 35.1844C46.967 38.0962 45.1992 40.742 42.9706 42.9706C40.742 45.1992 38.0962 46.967 35.1844 48.1731C32.2726 49.3792 29.1517 50 26 50C22.8483 50 19.7274 49.3792 16.8156 48.1731C13.9038 46.967 11.258 45.1992 9.02943 42.9706C6.80082 40.7419 5.033 38.0962 3.82689 35.1844C2.62078 32.2726 2 29.1517 2 26C2 22.8483 2.62078 19.7274 3.8269 16.8156C5.03301 13.9038 6.80084 11.258 9.02945 9.02943C11.2581 6.80082 13.9038 5.033 16.8156 3.82689C19.7274 2.62077 22.8483 2 26 2L26 2Z" stroke="#FF4AE2" stroke-width="4" stroke-linecap="round"/>
<path d="M18.168 38C17.9333 38 17.7413 37.9253 17.592 37.776C17.4427 37.6267 17.368 37.4347 17.368 37.2V16.4C17.368 16.1653 17.4427 15.9733 17.592 15.824C17.7413 15.6747 17.9333 15.6 18.168 15.6H26.904C28.632 15.6 30.1253 15.8667 31.384 16.4C32.664 16.9333 33.656 17.744 34.36 18.832C35.0853 19.8987 35.448 21.232 35.448 22.832C35.448 24.4533 35.0853 25.7973 34.36 26.864C33.656 27.9093 32.664 28.688 31.384 29.2C30.1253 29.712 28.632 29.968 26.904 29.968H22.616V37.2C22.616 37.4347 22.5413 37.6267 22.392 37.776C22.2427 37.9253 22.0507 38 21.816 38H18.168ZM22.52 26H26.744C27.832 26 28.6747 25.7333 29.272 25.2C29.8907 24.6667 30.2 23.8667 30.2 22.8C30.2 21.8613 29.9227 21.0933 29.368 20.496C28.8347 19.8987 27.96 19.6 26.744 19.6H22.52V26Z" fill="#FF4AE2"/>
</svg>
