<svg width="52" height="52" viewBox="0 0 52 52" fill="none" xmlns="http://www.w3.org/2000/svg">
<circle cx="26" cy="26" r="24" fill="#FFFCF2"/>
<circle cx="26" cy="26" r="24" stroke="#F2FDFF" stroke-width="4"/>
<path d="M26 2C29.1517 2 32.2726 2.62078 35.1844 3.82689C38.0962 5.033 40.742 6.80083 42.9706 9.02944C45.1992 11.258 46.967 13.9038 48.1731 16.8156C49.3792 19.7274 50 22.8483 50 26C50 29.1517 49.3792 32.2726 48.1731 35.1844C46.967 38.0962 45.1992 40.742 42.9706 42.9706C40.742 45.1992 38.0962 46.967 35.1844 48.1731C32.2726 49.3792 29.1517 50 26 50C22.8483 50 19.7274 49.3792 16.8156 48.1731C13.9038 46.967 11.258 45.1992 9.02943 42.9706C6.80082 40.7419 5.033 38.0962 3.82689 35.1844C2.62078 32.2726 2 29.1517 2 26C2 22.8483 2.62078 19.7274 3.8269 16.8156C5.03301 13.9038 6.80084 11.258 9.02945 9.02943C11.2581 6.80082 13.9038 5.033 16.8156 3.82689C19.7274 2.62077 22.8483 2 26 2L26 2Z" stroke="url(#paint0_linear_339_315)" stroke-width="4" stroke-linecap="round"/>
<path d="M25.432 38.32C23.384 38.32 21.6667 38.0213 20.28 37.424C18.9147 36.8267 17.88 36.048 17.176 35.088C16.472 34.128 16.0987 33.104 16.056 32.016C16.056 31.8453 16.12 31.696 16.248 31.568C16.376 31.4187 16.536 31.344 16.728 31.344H20.152C20.4293 31.344 20.6427 31.408 20.792 31.536C20.9413 31.6427 21.08 31.7813 21.208 31.952C21.3573 32.3147 21.592 32.6667 21.912 33.008C22.2533 33.3493 22.712 33.6373 23.288 33.872C23.864 34.0853 24.5787 34.192 25.432 34.192C26.8187 34.192 27.8533 33.968 28.536 33.52C29.24 33.072 29.592 32.464 29.592 31.696C29.592 31.1413 29.4 30.6933 29.016 30.352C28.6533 30.0107 28.0667 29.7013 27.256 29.424C26.4667 29.1467 25.4107 28.848 24.088 28.528C22.488 28.1867 21.1227 27.7493 19.992 27.216C18.8827 26.6613 18.04 25.9573 17.464 25.104C16.9093 24.2293 16.632 23.152 16.632 21.872C16.632 20.592 16.984 19.4613 17.688 18.48C18.392 17.4773 19.384 16.6987 20.664 16.144C21.944 15.568 23.4693 15.28 25.24 15.28C26.6693 15.28 27.928 15.472 29.016 15.856C30.1253 16.24 31.0427 16.7413 31.768 17.36C32.5147 17.9787 33.08 18.64 33.464 19.344C33.848 20.048 34.0507 20.7307 34.072 21.392C34.072 21.5627 34.008 21.7227 33.88 21.872C33.752 22 33.592 22.064 33.4 22.064H29.816C29.6027 22.064 29.4107 22.0213 29.24 21.936C29.0693 21.8507 28.9307 21.7013 28.824 21.488C28.696 20.9333 28.312 20.4533 27.672 20.048C27.0533 19.6213 26.2427 19.408 25.24 19.408C24.1947 19.408 23.3627 19.6 22.744 19.984C22.1467 20.368 21.848 20.9547 21.848 21.744C21.848 22.256 21.9973 22.6933 22.296 23.056C22.616 23.3973 23.1387 23.7067 23.864 23.984C24.6107 24.24 25.592 24.528 26.808 24.848C28.6853 25.232 30.2107 25.6907 31.384 26.224C32.5573 26.7573 33.4213 27.4507 33.976 28.304C34.5307 29.136 34.808 30.192 34.808 31.472C34.808 32.9013 34.4027 34.128 33.592 35.152C32.8027 36.176 31.704 36.9653 30.296 37.52C28.9093 38.0533 27.288 38.32 25.432 38.32Z" fill="url(#paint1_linear_339_315)"/>
<defs>
<linearGradient id="paint0_linear_339_315" x1="26" y1="2" x2="26" y2="50" gradientUnits="userSpaceOnUse">
<stop stop-color="#38C3FF"/>
<stop offset="1" stop-color="#4FDFFF"/>
</linearGradient>
<linearGradient id="paint1_linear_339_315" x1="24.5" y1="17" x2="24.5" y2="41" gradientUnits="userSpaceOnUse">
<stop stop-color="#4FC1FF"/>
<stop offset="1" stop-color="#4FA4FF"/>
</linearGradient>
</defs>
</svg>
