<svg width="52" height="52" viewBox="0 0 52 52" fill="none" xmlns="http://www.w3.org/2000/svg">
<circle cx="26" cy="26" r="24" fill="#FFFCF2"/>
<circle cx="26" cy="26" r="24" fill="#FFFCF2"/>
<path d="M27.4761 40C27.3561 40 27.2481 39.958 27.1521 39.874C27.0681 39.778 27.0261 39.67 27.0261 39.55V31.09C27.0261 30.958 27.0681 30.85 27.1521 30.766C27.2481 30.682 27.3561 30.64 27.4761 30.64H29.6901C29.8221 30.64 29.9301 30.682 30.0141 30.766C30.0981 30.85 30.1401 30.958 30.1401 31.09V31.774C30.4641 31.378 30.8781 31.06 31.3821 30.82C31.8981 30.58 32.4861 30.46 33.1461 30.46C33.8301 30.46 34.4361 30.616 34.9641 30.928C35.5041 31.24 35.9241 31.702 36.2241 32.314C36.5361 32.926 36.6921 33.664 36.6921 34.528V39.55C36.6921 39.67 36.6501 39.778 36.5661 39.874C36.4821 39.958 36.3741 40 36.2421 40H33.8481C33.7161 40 33.6021 39.958 33.5061 39.874C33.4221 39.79 33.3801 39.682 33.3801 39.55V34.636C33.3801 34.096 33.2481 33.682 32.9841 33.394C32.7321 33.106 32.3601 32.962 31.8681 32.962C31.3881 32.962 31.0101 33.112 30.7341 33.412C30.4581 33.7 30.3201 34.108 30.3201 34.636V39.55C30.3201 39.67 30.2781 39.778 30.1941 39.874C30.1101 39.958 30.0021 40 29.8701 40H27.4761Z" fill="url(#paint0_linear_339_333)"/>
<path d="M16.8561 34C16.6694 34 16.5107 33.9347 16.3801 33.804C16.2494 33.6734 16.1841 33.5147 16.1841 33.328V15.1C16.1841 14.8947 16.2401 14.7267 16.3521 14.596C16.4827 14.4654 16.6507 14.4 16.8561 14.4H24.3601C26.6187 14.4 28.3921 14.932 29.6801 15.996C30.9681 17.06 31.6121 18.6094 31.6121 20.644C31.6121 22.66 30.9681 24.1907 29.6801 25.236C28.3921 26.2627 26.6187 26.776 24.3601 26.776H20.2441V33.328C20.2441 33.5334 20.1787 33.7014 20.0481 33.832C19.9174 33.944 19.7494 34 19.5441 34H16.8561ZM24.2201 23.64C25.3027 23.64 26.1241 23.388 26.6841 22.884C27.2627 22.3614 27.5521 21.6054 27.5521 20.616C27.5521 19.6454 27.2721 18.8894 26.7121 18.348C26.1707 17.8067 25.3401 17.536 24.2201 17.536H20.1881V23.64H24.2201Z" fill="url(#paint1_linear_339_333)"/>
<path d="M26 2C29.1517 2 32.2726 2.62078 35.1844 3.82689C38.0962 5.033 40.742 6.80083 42.9706 9.02944C45.1992 11.258 46.967 13.9038 48.1731 16.8156C49.3792 19.7274 50 22.8483 50 26C50 29.1517 49.3792 32.2726 48.1731 35.1844C46.967 38.0962 45.1992 40.742 42.9706 42.9706C40.742 45.1992 38.0962 46.967 35.1844 48.1731C32.2726 49.3792 29.1517 50 26 50C22.8483 50 19.7274 49.3792 16.8156 48.1731C13.9038 46.967 11.258 45.1992 9.02943 42.9706C6.80082 40.7419 5.033 38.0962 3.82689 35.1844C2.62078 32.2726 2 29.1517 2 26C2 22.8483 2.62078 19.7274 3.8269 16.8156C5.03301 13.9038 6.80084 11.258 9.02945 9.02943C11.2581 6.80082 13.9038 5.033 16.8156 3.82689C19.7274 2.62077 22.8483 2 26 2L26 2Z" stroke="url(#paint2_linear_339_333)" stroke-width="4" stroke-linecap="round"/>
<defs>
<linearGradient id="paint0_linear_339_333" x1="26.4381" y1="14.4" x2="26.4381" y2="40" gradientUnits="userSpaceOnUse">
<stop stop-color="#FFD233"/>
<stop offset="1" stop-color="#FFB133"/>
</linearGradient>
<linearGradient id="paint1_linear_339_333" x1="26.4381" y1="14.4" x2="26.4381" y2="40" gradientUnits="userSpaceOnUse">
<stop stop-color="#FFD233"/>
<stop offset="1" stop-color="#FFB133"/>
</linearGradient>
<linearGradient id="paint2_linear_339_333" x1="26" y1="2" x2="26" y2="50" gradientUnits="userSpaceOnUse">
<stop stop-color="#FFCE33"/>
<stop offset="1" stop-color="#FFC633"/>
</linearGradient>
</defs>
</svg>
